<svg xmlns="http://www.w3.org/2000/svg" viewBox="0 0 1009.3 228.8"><defs><style>.cls-1{fill:#4299e2;}.cls-2{fill:#fff;}</style></defs><title>Asset 3</title><g id="Layer_2" data-name="Layer 2"><g id="Layer_1-2" data-name="Layer 1"><g id="Text"><path class="cls-1" d="M259.9,187.8V107.2c0-15.1-8.2-20.8-21.1-20.8-12.4,0-18.7,6.3-23.3,11.5v90H161.1l.3-185.5h52l2.1,56.1c8.5-9.7,24.5-20.2,50.1-20.2,33.8,0,48.6,20.5,48.6,45.9V187.8Z"/><path class="cls-1" d="M631.3,184.8l-23.9-81.6-23.6,81.5H524.7L482.4,38.9h55.9l19.3,80.3,25.7-80.3h48.6l25.4,80.3,19.3-80.3h56.2L690.5,184.8Z"/><path class="cls-1" d="M428.5,184.8V170.9c-8.2,10.3-26,17.5-44.1,17.5-21.7,0-50.1-14.8-50.1-48,0-36.2,28.4-46.5,50.1-46.5,19,0,36.2,6,44.1,16V94.8c0-10.3-9.4-18.1-27.2-18.1-13.6,0-29,5.4-40.5,14.2L342.4,57.3c19.6-15.7,46.8-22,68.9-22,36.2,0,71.6,12.7,71.6,61.3v88.2Zm0-39.6V137c-3.6-5.1-13-7.9-21.4-7.9-9.1,0-19,3-19,12.1s10,11.8,19,11.8C415.5,153.1,424.8,150.3,428.5,145.2Z"/><path class="cls-1" d="M922.2,143.5V87H898V39.9h24.2V0h54.4V39.9h29.6V87H976.6v40.8c0,7.5,4.8,13.6,12.1,13.6,4.8,0,9.7-1.5,10.9-2.7l9.7,41.1c-5.7,5.1-18.4,9.7-36.8,9.7C940,189.4,922.2,174,922.2,143.5Z"/><path class="cls-1" d="M0,170l21.7-36.5c11.5,9.1,36.2,18.4,52.5,18.4,11.2,0,14.5-2.7,14.5-6.3C88.7,131.7,6,149.5,6,89.1,6,62.8,29,39.3,71.2,39.3A114.12,114.12,0,0,1,134.3,58L114.4,93.3c-9.1-7.5-26-15.1-42.9-15.1-7.9,0-13.6,3-13.6,6.3,0,12.1,82.7-3,82.7,57.7,0,29-26,50.1-69.2,50.1C44.7,192.4,15.7,183,0,170Z"/></g><g id="MagnifyingGlass"><path class="cls-2" d="M818.5,222.4c-40.3,0-88.1-61.8-88.1-102.1s47.8-44.1,88.1-44.1a73.1,73.1,0,1,1,0,146.2Zm0-104.4a31.3,31.3,0,1,0,31.3,31.3A31.35,31.35,0,0,0,818.5,118Z"/><path class="cls-1" d="M818.5,82.6a66.7,66.7,0,1,1,0,133.4c-36.8,0-81.7-58.9-81.7-95.7s44.9-37.7,81.7-37.7m0,104.5a37.7,37.7,0,1,0-37.7-37.7,37.73,37.73,0,0,0,37.7,37.7m0-117.3c-43.8,0-94.5,6.7-94.5,50.5s50.7,108.5,94.5,108.5a79.5,79.5,0,0,0,0-159Zm0,104.4a24.9,24.9,0,1,1,24.9-24.9,25,25,0,0,1-24.9,24.9Z"/></g><circle class="cls-2" cx="818.9" cy="148.9" r="25.5"/></g></g></svg>